<svg xmlns="http://www.w3.org/2000/svg" viewBox="0 0 200 60" width="200" height="60">
  <defs>
    <linearGradient id="goldGrad" x1="0%" y1="0%" x2="100%" y2="100%">
      <stop offset="0%" style="stop-color:#D4A017"/>
      <stop offset="100%" style="stop-color:#8B6914"/>
    </linearGradient>
    <linearGradient id="greenGrad" x1="0%" y1="0%" x2="100%" y2="100%">
      <stop offset="0%" style="stop-color:#007A33"/>
      <stop offset="100%" style="stop-color:#004D1A"/>
    </linearGradient>
  </defs>
  <!-- Background circle -->
  <circle cx="30" cy="30" r="28" fill="url(#greenGrad)"/>
  <!-- Gold spiral approximation -->
  <path d="M30 8 C42 8 52 18 52 30 C52 42 42 52 30 52 C18 52 8 42 8 30 C8 18 18 8 30 8 Z" fill="none" stroke="url(#goldGrad)" stroke-width="3" opacity="0.4"/>
  <path d="M30 14 C39 14 46 21 46 30 C46 39 39 46 30 46 C21 46 14 39 14 30 C14 21 21 14 30 14 Z" fill="none" stroke="url(#goldGrad)" stroke-width="2.5" opacity="0.6"/>
  <path d="M30 20 C36 20 40 24 40 30 C40 36 36 40 30 40 C24 40 20 36 20 30 C20 24 24 20 30 20 Z" fill="none" stroke="url(#goldGrad)" stroke-width="2" opacity="0.8"/>
  <!-- CBE text -->
  <text x="30" y="36" font-family="Arial Black, Arial, sans-serif" font-size="18" font-weight="900" fill="#D4A017" text-anchor="middle" dominant-baseline="middle">CBE</text>
  <!-- Movies text -->
  <text x="98" y="24" font-family="Arial, sans-serif" font-size="16" font-weight="700" fill="#D4A017" letter-spacing="2">MOVIES</text>
  <!-- Tagline -->
  <text x="98" y="42" font-family="Arial, sans-serif" font-size="10" fill="#a0a0b8" letter-spacing="1">COMMERCIAL BANK OF ETHIOPIA</text>
</svg>
